<?xml version="1.0" encoding="UTF-8" standalone="no"?>
<!-- Created with Inkscape (http://www.inkscape.org/) -->

<svg
   xmlns:dc="http://purl.org/dc/elements/1.1/"
   xmlns:cc="http://creativecommons.org/ns#"
   xmlns:rdf="http://www.w3.org/1999/02/22-rdf-syntax-ns#"
   xmlns:svg="http://www.w3.org/2000/svg"
   xmlns="http://www.w3.org/2000/svg"
   xmlns:sodipodi="http://sodipodi.sourceforge.net/DTD/sodipodi-0.dtd"
   xmlns:inkscape="http://www.inkscape.org/namespaces/inkscape"
   version="1.0"
   width="800"
   height="800"
   id="svg2"
   inkscape:version="0.48.5 r10040"
   sodipodi:docname="planeAN225.svg">
  <metadata
     id="metadata3039">
    <rdf:RDF>
      <cc:Work
         rdf:about="">
        <dc:format>image/svg+xml</dc:format>
        <dc:type
           rdf:resource="http://purl.org/dc/dcmitype/StillImage" />
      </cc:Work>
    </rdf:RDF>
  </metadata>
  <sodipodi:namedview
     pagecolor="#ffffff"
     bordercolor="#666666"
     borderopacity="1"
     objecttolerance="10"
     gridtolerance="10"
     guidetolerance="10"
     inkscape:pageopacity="0"
     inkscape:pageshadow="2"
     inkscape:window-width="1680"
     inkscape:window-height="988"
     id="namedview3037"
     showgrid="false"
     showguides="true"
     inkscape:guide-bbox="true"
     inkscape:zoom="1.668772"
     inkscape:cx="520.85646"
     inkscape:cy="393.67922"
     inkscape:window-x="-8"
     inkscape:window-y="-8"
     inkscape:window-maximized="1"
     inkscape:current-layer="svg2">
    <sodipodi:guide
       orientation="1,0"
       position="109.06223,599.24304"
       id="guide3097" />
    <sodipodi:guide
       orientation="1,0"
       position="398.49662,569.28088"
       id="guide3099" />
    <sodipodi:guide
       orientation="1,0"
       position="689.72873,494.3755"
       id="guide3101" />
  </sodipodi:namedview>
  <defs
     id="defs4" />
  <g
     id="layer1" />
  <path
     style="color:#000000;fill:#000000;fill-opacity:1;fill-rule:nonzero;stroke:none;stroke-width:1;marker:none;visibility:visible;display:inline;overflow:visible"
     d="M 399.8125 26.1875 C 382.05212 27.190673 364.24636 63.381591 356.28125 135.03125 L 356.28125 249.3125 L 296.71875 289.125 C 298.36552 285.78723 297.94667 282.23704 297.96875 278.71875 L 297.78125 238.625 L 268.8125 238.4375 L 269.0625 285.1875 C 269.0695 292.69253 270.05818 297.1735 276.71875 301.3125 L 204.84375 348.4375 C 207.00584 345.10986 206.84375 341.30361 206.84375 337.53125 L 206.78125 295.0625 L 178.71875 294.90625 L 178.625 342.125 C 178.83728 349.00815 179.89288 356.29793 186.125 360.5625 L 122.34375 402.21875 C 123.32504 399.47162 123.25 396.50475 123.25 393.5625 L 123.1875 351.09375 L 95.125 350.9375 L 95.03125 398.15625 C 95.231737 404.657 96.177205 411.50938 101.53125 415.84375 L 30.625 462.15625 C 3.2756372 481.48505 8.4607742 501.67847 10.28125 521.71875 L 356.28125 404.25 L 356.28125 582.78125 L 365.65625 648.53125 L 252.9375 731.46875 C 236.83726 745.22489 238.91148 759.65996 242 773.75 L 388.4375 735.5 C 390.12757 775.97177 408.69628 776.66189 411.5625 735.5625 L 558 773.84375 C 561.08852 759.75369 563.16273 745.2874 547.0625 731.53125 L 434.34375 648.59375 L 443.71875 582.875 L 443.71875 404.3125 L 789.71875 521.71875 C 791.53923 501.67851 796.72436 481.5788 769.375 462.25 L 696.59375 414.6875 L 696.53125 412.875 C 702.76336 408.61043 703.81897 401.35191 704.03125 394.46875 L 703.9375 347.21875 L 675.90625 347.40625 L 675.8125 389.84375 C 675.8125 393.61611 675.65041 397.4536 677.8125 400.78125 L 615.15625 359.6875 C 620.25843 355.34317 621.08423 348.57576 621.28125 342.1875 L 621.28125 294.96875 L 593.21875 295.125 L 593.15625 338.34375 C 593.12595 342.16439 593.2469 345.43008 595.46875 348.96875 L 523.21875 301.40625 C 529.87938 297.26725 530.93084 292.75503 530.9375 285.25 L 531.1875 238.53125 L 502.21875 238.6875 L 502.03125 278.96875 C 502.05025 282.63485 501.77623 285.91746 503.65625 289.28125 L 443.71875 249.40625 L 443.71875 135.09375 C 436.38864 61.554403 418.1367 25.15248 399.8125 26.1875 z "
     id="path1882-7" />
</svg>
