<?xml version="1.0" encoding="UTF-8" standalone="no"?>
<!-- Generator: Adobe Illustrator 14.0.0, SVG Export Plug-In . SVG Version: 6.00 Build 43363)  -->

<svg
   xmlns:dc="http://purl.org/dc/elements/1.1/"
   xmlns:cc="http://creativecommons.org/ns#"
   xmlns:rdf="http://www.w3.org/1999/02/22-rdf-syntax-ns#"
   xmlns:svg="http://www.w3.org/2000/svg"
   xmlns="http://www.w3.org/2000/svg"
   xmlns:sodipodi="http://sodipodi.sourceforge.net/DTD/sodipodi-0.dtd"
   xmlns:inkscape="http://www.inkscape.org/namespaces/inkscape"
   version="1.0"
   id="Layer_1"
   x="0px"
   y="0px"
   width="228.366"
   height="240.00006"
   viewBox="0 0 228.366 240.00006"
   enable-background="new 0 0 95.152 100.001"
   xml:space="preserve"
   inkscape:version="0.48.5 r10040"
   sodipodi:docname="plane.svg"><metadata
   id="metadata9"><rdf:RDF><cc:Work
       rdf:about=""><dc:format>image/svg+xml</dc:format><dc:type
         rdf:resource="http://purl.org/dc/dcmitype/StillImage" /><dc:title /><cc:license
         rdf:resource="http://creativecommons.org/licenses/publicdomain/" /></cc:Work><cc:License
       rdf:about="http://creativecommons.org/licenses/publicdomain/"><cc:permits
         rdf:resource="http://creativecommons.org/ns#Reproduction" /><cc:permits
         rdf:resource="http://creativecommons.org/ns#Distribution" /><cc:permits
         rdf:resource="http://creativecommons.org/ns#DerivativeWorks" /></cc:License></rdf:RDF></metadata><defs
   id="defs7" /><sodipodi:namedview
   pagecolor="#ffffff"
   bordercolor="#666666"
   borderopacity="1"
   objecttolerance="10"
   gridtolerance="10"
   guidetolerance="10"
   inkscape:pageopacity="0"
   inkscape:pageshadow="2"
   inkscape:window-width="1680"
   inkscape:window-height="988"
   id="namedview5"
   showgrid="false"
   fit-margin-top="0"
   fit-margin-left="0"
   fit-margin-right="0"
   fit-margin-bottom="0"
   inkscape:zoom="5.8265599"
   inkscape:cx="121.50408"
   inkscape:cy="85.075697"
   inkscape:window-x="-8"
   inkscape:window-y="-8"
   inkscape:window-maximized="1"
   inkscape:current-layer="Layer_1"
   showguides="true"
   inkscape:guide-bbox="true"><sodipodi:guide
     orientation="0,1"
     position="41.362314,65.390215"
     id="guide3011" /><sodipodi:guide
     orientation="1,0"
     position="86.843697,112.07299"
     id="guide3013" /><sodipodi:guide
     orientation="1,0"
     position="113.61764,96.111601"
     id="guide3015" /><sodipodi:guide
     orientation="1,0"
     position="141.0781,104.34974"
     id="guide3017" /><sodipodi:guide
     orientation="0,1"
     position="118.76648,41.190686"
     id="guide3019" /><sodipodi:guide
     orientation="0,1"
     position="108.98369,67.278121"
     id="guide3021" /><sodipodi:guide
     orientation="0,1"
     position="102.80509,68.9944"
     id="guide3023" /></sodipodi:namedview>
<path
   d="m 124.13215,203.94801 c 0.23142,-1.42703 0.28465,-3.35555 9.08452,-5.13863 7.62156,-1.54433 7.86127,-16.52362 7.86143,-24.19953 5e-5,-2.23115 -2.05856,-1.88791 -10.15327,-1.88791 -1.08541,0 -1.53917,-1.71628 -1.53917,-1.71628 3.73284,-31.14463 2.58005,-53.45 2.58005,-53.45 L 228.366,168.95619 224.19242,150.71629 132.4769,73.129497 C 129.62092,20.872171 123.10255,5.2338531 123.10255,5.2338531 120.47217,-0.25491786 114.2394,0.00188014 114.2394,0.00188014 l -0.0552,0 -0.0552,0 c 0,0 -6.23517,-0.256798 -8.86315,5.23197296 0,0 -6.518368,15.6383179 -9.374353,67.8956439 L 4.1735775,150.71869 -4.749632e-7,168.95619 96.400294,117.55566 c 0,0 0.376449,24.76769 3.39014,54.19917 0.06419,0.62685 -0.667139,0.98618 -1.820398,1.02503 -10.696976,0.36035 -10.774186,-0.76716 -10.908452,1.84428 -0.330157,6.42146 -1.368753,22.32837 8.842085,24.33254 5.060601,0.99329 7.898521,2.32957 8.330181,4.99133 0,0 -28.759046,26.13106 -28.216649,27.95985 l 0,7.31756 c 0,0 1.286394,1.3176 5.74797,0.516 l 25.043869,-8.60635 c 0,0 4.74717,-1.056 7.37516,-0.7704 2.63039,-0.2856 7.37516,0.7704 7.37516,0.7704 l 25.04387,8.60635 c 4.45918,0.8016 5.74797,-0.516 5.74797,-0.516 l 0,-7.31516 c 0.54,-1.83119 -28.21905,-27.96225 -28.21905,-27.96225 z"
   id="path3"
   inkscape:connector-curvature="0"
   sodipodi:nodetypes="csssscccccccccccccssssccccccccccc" />
</svg>